<svg xmlns="http://www.w3.org/2000/svg" x="0px" y="0px" viewBox="0 0 1000 1000">
<style type="text/css">
	.st0{fill:none;stroke:#AEBBBA;stroke-width:5;stroke-linecap:round;stroke-linejoin:round;stroke-miterlimit:1.5;}
	.st1{fill:none;stroke:#1F4B45;stroke-width:5;stroke-linecap:round;stroke-linejoin:round;stroke-miterlimit:1.5;}
</style>
<path class="st0" d="M706.7,529.3l-138.6,80"/>
<path class="st1" d="M27.7,553.3l381.1-276l381.1-164l138.6,80"/>
<path class="st1" d="M546.9,357.1l-138.1-79.7"/>
<path class="st1" d="M976.9,429.3v32"/>
<path class="st1" d="M927.9,193.1l-381.1,164l-381.1,276"/>
<path class="st1" d="M27.7,793.3v-240l0,0l138.6,80"/>
<path class="st1" d="M214.8,901.3l221.7-128"/>
<path class="st1" d="M748.2,593.3l228.6-132"/>
<g>
	<g>
		<g>
			<path class="st0" d="M762.1,373.3l0,108.4l111.1-64.2V309.2"/>
			<path class="st0" d="M762.1,457.7l111.1-64.2"/>
			<path class="st0" d="M762.1,433.7l111.1-64.2"/>
			<path class="st0" d="M762.1,409.7l111.1-64.2"/>
			<path class="st0" d="M762.1,385.7l110.9-64"/>
		</g>
		<path class="st1" d="M893.7,421.3l-145.5,84"/>
		<path class="st1" d="M928.4,387.3v-42l0-152"/>
		<path class="st1" d="M748.2,505.3v-152"/>
		<g>
			<path class="st1" d="M814.1,331.3l-52,30l-13.9-8l138.6-80l13.9,8L814.1,331.3L814.1,331.3z"/>
			<path class="st1" d="M762.1,361.3l-6.9,16l-6.9-4"/>
			<path class="st1" d="M755.2,377.3l138.6-80l7.4-15.7"/>
		</g>
		<path class="st1" d="M886.8,425.3v-124"/>
	</g>
	<g>
		<g>
			<path class="st0" d="M582,477.4v48l112.5-65v-48"/>
			<path class="st0" d="M582,501.3l112.5-65"/>
			<path class="st0" d="M575.1,481.4l117.8-68"/>
		</g>
		<path class="st0" d="M706.7,529.3l-34.6-20"/>
		<path class="st1" d="M706.7,529.3l41.6-24"/>
		<g>
			<path class="st1" d="M633.9,435.3l-52,30l-13.9-8l138.6-80l13.9,8L633.9,435.3z"/>
			<path class="st1" d="M582,465.3l-6.9,16l-6.9-4"/>
			<path class="st1" d="M575,481.3l138.6-80l7.4-15.7"/>
		</g>
		<path class="st1" d="M568.1,545.3l138.6-80"/>
		<path class="st1" d="M568.1,609.3V458.5"/>
		<g>
			<path class="st1" d="M634.1,527.2l10.4,6l27.7-16"/>
			<path class="st1" d="M634.1,507.2l10.4,6l27.7-16l-10.4-6"/>
			<path class="st1" d="M672.2,517.2v-20"/>
			<path class="st1" d="M644.5,513.2v20"/>
			<path class="st1" d="M578.5,539.3l27.7,16l27.7-16"/>
			<path class="st1" d="M595.8,529.3l10.4,6l27.7-16l-10.4-6"/>
			<path class="st1" d="M620.1,527.3l-10.4-6"/>
			<path class="st1" d="M633.9,539.3v-20"/>
			<path class="st1" d="M606.2,535.3v20"/>
		</g>
	</g>
	<g>
		<path class="st0" d="M526.5,633.3l-114.3,66"/>
		<g>
			<path class="st0" d="M401.8,581.3v80l110.8-64v-80"/>
			<path class="st0" d="M401.8,637.3l110.8-64"/>
			<path class="st0" d="M401.8,613.3l110.9-64"/>
			<path class="st0" d="M401.9,589.4l110.8-63.9"/>
		</g>
		<path class="st0" d="M526.5,633.3l-24.2-14"/>
		<g>
			<path class="st1" d="M526.5,633.3v-124"/>
			<path class="st1" d="M526.7,633.2l41.4-23.9"/>
		</g>
		<path class="st1" d="M388,705.3v-144"/>
		<g>
			<path class="st1" d="M460.7,535.3l-58.5,33.8l-13.9-8l138.2-79.8l13.9,8L460.7,535.3L460.7,535.3z"/>
			<path class="st1" d="M401.8,569.3l-6.9,16l-6.5-3.8"/>
			<path class="st1" d="M395.1,585.2l138.4-79.9l7.4-15.7"/>
		</g>
		<path class="st1" d="M388,685.3l138.6-80"/>
	</g>
	<g>
		<g>
			<path class="st0" d="M332.6,729.9V621.4"/>
			<path class="st0" d="M221.7,793.8V685.3"/>
			<path class="st0" d="M221.7,721.8l110.9-64"/>
			<path class="st0" d="M221.7,745.8l110.9-64.1"/>
			<path class="st0" d="M221.7,769.8l110.9-64.1"/>
			<path class="st0" d="M221.7,793.8l110.9-64"/>
			<path class="st0" d="M221.7,697.9l110.9-64"/>
		</g>
		<path class="st1" d="M207.6,665.7l0.4,151.5"/>
		<path class="st1" d="M215.2,813.1l-48.9,28.2"/>
		<path class="st1" d="M346.1,737.5l-138.3,79.8"/>
		<path class="st1" d="M346.1,737.5v-124"/>
		<g>
			<path class="st1" d="M280.6,639.3l-58.7,33.9l-13.9-8l138.4-79.9l13.9,8L280.6,639.3L280.6,639.3z"/>
			<path class="st1" d="M221.9,673.2l-6.9,16l-6.5-3.8"/>
			<path class="st1" d="M215.2,689.1l138.2-79.8l7.4-15.7"/>
		</g>
		<path class="st1" d="M346.1,737.5l31.5-18.2"/>
	</g>
	<g>
		<path class="st1" d="M895.5,420.3l27.7,16l27.7-16"/>
		<path class="st1" d="M950.9,420.3v-20"/>
		<path class="st1" d="M923.2,416.3v20"/>
		<path class="st1" d="M895.5,400.3v20"/>
		<path class="st1" d="M923.2,384.3l-27.7,16l27.7,16l27.7-16L923.2,384.3z"/>
		<path class="st1" d="M909.3,408.3l27.7-16"/>
	</g>
	<g>
		<path class="st1" d="M377.6,731.3l27.7,16l27.7-16"/>
		<path class="st1" d="M405.3,695.3l-27.7,16l27.7,16l27.7-16L405.3,695.3L405.3,695.3z"/>
		<path class="st1" d="M391.4,703.3l27.7,16"/>
		<path class="st1" d="M433,731.3v-20"/>
		<path class="st1" d="M405.3,727.3v20"/>
		<path class="st1" d="M377.6,711.3v20"/>
	</g>
	<path class="st1" d="M706.7,529.3v-124"/>
	<path class="st1" d="M166.3,633.3v208l48.5,28"/>
	<g>
		<path class="st1" d="M214.8,869.3l221.7-128"/>
		<path class="st1" d="M762.1,553.3l214.8-124"/>
		<path class="st1" d="M436.5,741.3l13.9,8l124.7-72"/>
		<path class="st1" d="M575,677.3l200.9-116l-13.9-8"/>
	</g>
</g>
<path class="st1" d="M976.9,429.3l-24.2-14"/>
<path class="st1" d="M436.5,741.3v32"/>
<path class="st1" d="M436.5,757.3l29.1,16.8L644.3,671"/>
<path class="st1" d="M436.5,749.3l20.8,12l184-106.2"/>
<path class="st1" d="M644.3,671l146.9-84.8l-15.3-8.8"/>
<path class="st1" d="M637.4,657.3l145.5-84l-13.9-8"/>
<path class="st1" d="M214.8,901.3l-187.1-108"/>
<path class="st1" d="M214.8,869.3v32"/>
</svg>
