<svg xmlns="http://www.w3.org/2000/svg" x="0px" y="0px" viewBox="0 0 1000 1000">
<style type="text/css">
	.st0{fill:none;stroke:#1F4B45;stroke-width:5;stroke-linecap:round;stroke-linejoin:round;stroke-miterlimit:1.5;}
	.st1{fill:none;stroke:#AEBBBA;stroke-width:5;stroke-linecap:round;stroke-linejoin:round;stroke-miterlimit:1.5;}
</style>
<g>
	<path class="st0" d="M263.8,849c0,0-28.6,16.5-42.1,24.3c-4.3,2.5-9.6,2.5-13.8,0l0,0c0,0-137.8-79.5-176.2-101.8
		c-5.9-3.4-9-10.2-7.8-16.9c1.5-8.1,3.3-17.7,3.3-17.7"/>
	<path class="st0" d="M58.9,751.3l123,71"/>
	<path class="st0" d="M244.3,824.3l24-13.8"/>
	<path class="st0" d="M27.7,713.3v-53.7c0-9.1,0.4-18.2,1.1-27.3c2-26,7.8-72.2,23.2-93"/>
	<path class="st0" d="M214.8,823.4v-57.1c0-9.8,0.4-19.6,1.2-29.4c2.2-25.8,8-69.3,23-89.6"/>
	<path class="st0" d="M52,539.3l92.3-53.3c0,0-4.4-16.8,18.9-30.6s38.1-22,38.1-22"/>
	<path class="st0" d="M239,647.3l91.9-53.4c0,0-1-14.7,22.4-28.6c23.3-13.8,40-20.9,40-20.9"/>
	<path class="st0" d="M393.3,544.4L200.9,433.3"/>
	<path class="st0" d="M393.3,544.4c0,0,10.3,29.1-9.1,59.8"/>
	<path class="st0" d="M144.2,486.1c0,0,19.5,18.1,38.2,35.3c22.1,20.4,48.1,36.3,76.5,46.6c32.6,11.9,71.9,26.2,71.9,26.2"/>
	<path class="st0" d="M330.8,594c0,0,32.5-13.9,48-14c0,0,9.2,28.9,9.2,77.3v84l-17.3,10v-86.7c0-16-3.8-39.2-8.1-56.6
		c-2.5-9.8-5.1-17.8-7.4-21.6"/>
	<path class="st1" d="M229.9,642.1c-16.1,21.6-23.9,65.8-27.1,90.2c-0.5,4.1-0.9,7.6-1.2,10.4c-0.4,4.1-0.6,8.2-0.6,12.3
		c0,0,0,0,0,0c0,2.1-1.1,4.1-3,5.2c-1.9,1.1-4.1,1.1-6,0c-28.8-16.6-118.4-68.4-145.5-84c-4.8-2.8-7.8-8-7.8-13.5v-2.7
		c0-3.3,0.1-6.6,0.2-9.9c0.7-13.2,3.1-46.6,9.5-72.5"/>
	<path class="st1" d="M181.8,546.3c-3.1-1.8-7-1.8-10.1,0c-6.5,3.8-17.9,10.3-24.4,14.1c-1.1,0.6-1.7,1.7-1.7,3c0,1.2,0.6,2.3,1.7,3
		c10.6,6.1,34.7,20,45.2,26.1c3.1,1.8,7,1.8,10.1,0c6.5-3.8,17.9-10.3,24.4-14.1c1.1-0.6,1.7-1.7,1.7-3c0-1.2-0.6-2.3-1.7-3
		C216.4,566.3,192.3,552.4,181.8,546.3L181.8,546.3z"/>
	<path class="st1" d="M158.5,801.5c1.2-2.1,0.5-4.7-1.6-5.9c-12.8-7.4-55.1-31.8-72.2-41.7c-1-0.6-2.2-0.4-3,0.3c-0.8,0.8-1,2-0.5,3
		c2.3,4.7,4.8,9.8,4.8,9.8l69.3,40C155.3,807,157,804,158.5,801.5L158.5,801.5z"/>
	<path class="st1" d="M175.4,772L64.6,708v16.2l110.9,64V772z"/>
	<path class="st1" d="M308.5,789.4c9.5-5.5,17.1-1,17.1,9.9c0,10.9-7.7,24.2-17.1,29.7c-9.5,5.5-17.1,1-17.1-9.9
		C291.3,808.2,299,794.9,308.5,789.4z"/>
	<path class="st1" d="M573.3,636.5c9.5-5.5,17.2-1,17.2,9.9c0,10.9-7.7,24.2-17.2,29.7c-9.5,5.5-17.1,1-17.1-9.9
		C556.1,655.3,563.8,642,573.3,636.5z"/>
	<path class="st1" d="M805.4,502.5c9.5-5.5,17.1-1,17.1,9.9c0,10.9-7.7,24.2-17.1,29.7c-9.5,5.5-17.1,1-17.1-9.9
		C788.2,521.3,795.9,508,805.4,502.5z"/>
	<path class="st1" d="M900.4,447.7c9.5-5.5,17.1-1,17.1,9.9c0,10.9-7.7,24.2-17.1,29.7c-9.5,5.5-17.1,1-17.1-9.9
		C883.3,466.4,891,453.1,900.4,447.7z"/>
	<path class="st0" d="M239,647.3L52,539.3"/>
	<path class="st0" d="M362.5,608l-50.7,29.3"/>
	<path class="st1" d="M235.6,706.1c-4.7,16.6-7.6,33.5-6.3,49.5c0.2,1.9,1.3,3.6,3,4.5c1.7,0.9,3.8,0.8,5.4-0.1
		c13.9-8,44.1-25.4,58.8-33.9c5.2-3,8.3-8.5,8.3-14.4c0-16.4,0-49.3,0-63.5c0-1.4-0.8-2.7-2-3.4c-1.2-0.7-2.7-0.7-4,0
		c-8.6,5-25,14.4-37.3,21.5c-6.1,3.5-11.3,8.3-15.4,13.9"/>
	<path class="st0" d="M311.8,605.3v152"/>
	<path class="st0" d="M264.5,848.6c-0.8-3.4-1.2-7.1-1.2-11.2c0-28.8,20.2-63.8,45.1-78.2c24.9-14.4,45.1-2.7,45.1,26.1
		c0,4.1-0.4,8.3-1.2,12.6"/>
	<path class="st0" d="M353.3,797.3l149-86v-36l-17.3-10"/>
	<path class="st0" d="M370.7,743.3v44"/>
	<path class="st0" d="M308.5,771.2c18.2-10.5,32.9-2,32.9,19c0,21-14.7,46.5-32.9,57c-18.2,10.5-32.9,2-32.9-19
		C275.6,807.3,290.3,781.7,308.5,771.2z"/>
	<path class="st0" d="M332.6,769.3l-20.8-12"/>
	<path class="st0" d="M284.1,848.8L263.8,837"/>
	<path class="st0" d="M573.3,618.3c18.2-10.5,32.9-2,32.9,19c0,21-14.7,46.5-32.9,57c-18.2,10.5-32.9,2-32.9-19
		C540.4,654.4,555.1,628.8,573.3,618.3z"/>
	<path class="st0" d="M518.2,678.2c-5.6-3.6-9-10.8-9-20.9c0-2,0.1-4.1,0.4-6.2"/>
	<path class="st0" d="M845.3,489.3c-5.5-3.6-8.9-10.8-8.9-20.9c0-2,0.1-4.1,0.4-6.2"/>
	<path class="st0" d="M548.9,695.9l-30.7-17.7"/>
	<path class="st0" d="M805.4,484.3c18.2-10.5,32.9-2,32.9,19c0,21-14.7,46.5-32.9,57c-18.2,10.5-32.9,2-32.9-19
		S787.2,494.8,805.4,484.3L805.4,484.3z"/>
	<path class="st0" d="M829.5,482.4l-13.9-8"/>
	<path class="st0" d="M781,561.9L755.2,547"/>
	<path class="st0" d="M900.4,429.5c18.2-10.5,32.9-2,32.9,19c0,21-14.7,46.5-32.9,57c-18.2,10.5-32.9,2-32.9-19
		C867.5,465.5,882.3,439.9,900.4,429.5z"/>
	<path class="st0" d="M924.5,427.6l-13.9-8"/>
	<path class="st0" d="M876,507l-30.7-17.7"/>
	<path class="st0" d="M433,695.3l540.4-312"/>
	<path class="st0" d="M976.9,381.3v-160L433,535.3v160L976.9,381.3L976.9,381.3z"/>
	<path class="st0" d="M433,567.3v-32L246,427.3v32"/>
	<path class="st0" d="M502.3,675.3l-131.6,76"/>
	<path class="st0" d="M311.8,725.3c0,0-0.9,0.5-2,1.2c-3.1,1.8-4.9,5-4.9,8.5v10.1c0,0.9,0.5,1.7,1.2,2.1c0.8,0.4,1.7,0.4,2.5,0
		c1.7-1,3.2-1.9,3.2-1.9L311.8,725.3L311.8,725.3z"/>
	<path class="st0" d="M246,427.3l543.9-314l187.1,108"/>
	<path class="st0" d="M627,583.3v48l128.2-74v-48"/>
	<path class="st0" d="M627,631.3l-41.6-24"/>
	<path class="st0" d="M969.9,385.3v56"/>
	<path class="st0" d="M969.9,441.3l-48.5-28"/>
	<path class="st0" d="M433,667.3l543.9-314"/>
	<path class="st0" d="M433,667.3l-45-26"/>
	<path class="st0" d="M433,695.3l-45-26"/>
	<g>
		<path class="st1" d="M455.2,642.5v24"/>
		<path class="st1" d="M538.4,594.5v24"/>
		<path class="st1" d="M621.5,546.5v24"/>
		<path class="st1" d="M704.6,499.2v23.3"/>
		<path class="st1" d="M787.8,450.5v24"/>
		<path class="st1" d="M870.9,402.5v24"/>
		<path class="st1" d="M954.1,355.2v23.3"/>
	</g>
	<path class="st0" d="M62.4,545.3c-16.4,9.9-17.5,30.1-17.5,30.1l164.6,94.8"/>
	<path class="st0" d="M228.6,641.3c-15.2,6.9-19.1,29-19.1,29l7.7-2.9"/>
	<path class="st0" d="M217.2,667.4c0,0,7.4-19.5,12.7-24.9"/>
	<path class="st0" d="M213.1,844.4c0,0-21-12.1-28.5-16.5c-1.6-0.9-2.6-2.7-2.6-4.6v-8.1c0-1.8,1.1-3.6,2.7-4.5
		c2.1-1.2,4.5-2.1,6.6-0.9c9.2,5.3,23.5,13.6,23.5,13.6"/>
	<path class="st0" d="M58.9,751.3c0,0-0.6,0.3-1.3,0.7c-1.4,0.8-3,0.8-4.4,0c-5.9-3.4-21.9-12.7-29-16.8c-2.1-1.2-3.4-3.5-3.4-5.9
		c0-3,0-7,0-10.4c0-1.2,0.6-2.3,1.6-2.8l4.2-2.4c1-0.6,1.6-0.2,2.6,0.4c6.1,3.5,16.4,9.4,23.1,13.3c4.1,2.4,6.6,6.7,6.6,11.5
		L58.9,751.3"/>
	<path class="st0" d="M214.8,823.4c0,0,14.8-8.5,22.3-12.9c0.8-0.4,1.7-0.4,2.5,0"/>
	<path class="st0" d="M239.6,810.5c0.8,0.4,1.5,0.8,2.2,1.3c2,1.2,2.5,3.1,2.5,3.9c0,3.1,0,7,0,10c0,2.8-1.5,5.5-4,6.9
		c-5.4,3.1-15.1,8.7-20.3,11.7c-2.1,1.2-4.8,1.2-6.9,0l0,0"/>
	<path class="st0" d="M256.3,698.7c0-3.3-1.8-6.3-4.6-8c-3-1.7-6.9-4-10.1-5.9c-1.2-0.7-2.8-0.7-4,0c-1.2,0.7-2,2-2,3.5
		c0,10.5,0,30.3,0,39.7c0,3.3,1.8,6.3,4.6,8c3,1.7,6.9,4,10.1,5.9c1.2,0.7,2.8,0.7,4,0c1.2-0.7,2-2,2-3.5
		C256.3,727.9,256.3,708.1,256.3,698.7L256.3,698.7z"/>
	<path class="st0" d="M261.3,737.9c1.2-0.7,2-2,2-3.5c0-10.5,0-30.3,0-39.7c0-3.3-1.8-6.3-4.6-8c-3-1.7-6.9-4-10.1-5.9
		c-1.2-0.7-2.8-0.7-4,0"/>
	<path class="st0" d="M237.6,684.8l6.9-4"/>
	<path class="st0" d="M254.3,741.9l7.2-4.2"/>
	<path class="st0" d="M39.1,567.9c-1.8-1.1-3.7-2.1-5.4-3.1c-1.2-0.7-2.8-0.7-4,0c-1.2,0.7-2,2-2,3.5c0,10.5,0,30.3,0,39.7
		c0,2.5,1,4.9,2.8,6.6"/>
	<path class="st0" d="M40.7,560.8c-1.2-0.7-2.8-0.7-4,0"/>
	<path class="st0" d="M29.7,564.8l6.9-4"/>
	<path class="st0" d="M351.6,798.3l-10.4-6"/>
</g>
</svg>
