<svg xmlns="http://www.w3.org/2000/svg"  x="0px" y="0px" viewBox="0 0 1000 1000">
<style type="text/css">
	.st0{fill:none;stroke:#1F4B45;stroke-width:5;stroke-linecap:round;stroke-linejoin:round;stroke-miterlimit:1.5;}
	.st1{fill:none;stroke:#AEBBBA;stroke-width:5;stroke-linecap:round;stroke-linejoin:round;stroke-miterlimit:1.5;}
</style>
<path class="st0" d="M976.9,389.3l-762.1,440"/>
<path class="st0" d="M976.9,389.3l-27.7-16l-31.2,18"/>
<path class="st0" d="M214.8,829.3l-27.7-16l31.2-18l-131.6-76l-31.2,18"/>
<path class="st0" d="M27.7,721.3l58.9-34"/>
<path class="st0" d="M457.3,705.3H485l221.7-128l27.7-32"/>
<path class="st0" d="M214.8,829.3l41.6-8l200.9-116"/>
<path class="st0" d="M734.4,545.3l200.9-116l41.6-40"/>
<path class="st0" d="M214.8,853.4l-128.2-74"/>
<g>
	<path class="st0" d="M845.2,537.3l41.6-24"/>
</g>
<g>
	<path class="st0" d="M935.3,485.3l41.6-24"/>
</g>
<g>
	<path class="st0" d="M665.1,641.3l41.6-24"/>
</g>
<g>
	<path class="st0" d="M575,693.3l41.6-24"/>
	<path class="st0" d="M575,693.3l-17.3-10"/>
	<path class="st0" d="M665.1,641.3l-20.8-12"/>
</g>
<g>
	<path class="st0" d="M485,745.3l41.6-24"/>
</g>
<g>
	<path class="st0" d="M394.9,797.3l41.6-24"/>
</g>
<path class="st0" d="M394.9,797.3l-20.8-12"/>
<g>
	<path class="st0" d="M304.8,849.3l41.6-24"/>
	<path class="st0" d="M284.1,837.3l20.8,12"/>
</g>
<g>
	<path class="st0" d="M214.8,901.3l41.6-24"/>
	<path class="st0" d="M256.3,877.3l-20.8-12"/>
	<path class="st0" d="M346.4,825.3l-20.8-12"/>
	<path class="st0" d="M436.5,773.3l-20.8-12"/>
	<path class="st0" d="M526.5,721.3l-20.8-12"/>
	<path class="st0" d="M616.6,669.3l-20.8-12"/>
	<path class="st0" d="M706.7,617.3l-20.8-12"/>
	<path class="st0" d="M796.7,565.3l-20.8-12"/>
	<path class="st0" d="M886.8,513.3l-20.8-12"/>
	<path class="st0" d="M976.9,461.3l-20.8-12"/>
	<path class="st0" d="M27.7,793.3l187.1,108"/>
	<path class="st0" d="M27.7,793.3l13.9-8"/>
</g>
<path class="st0" d="M755.2,589.3l41.6-24"/>
<path class="st0" d="M246,615.3v180l336-194"/>
<g>
	<path class="st1" d="M890.3,263.3l-277.1,160v144l277.1-160V263.3L890.3,263.3z"/>
	<path class="st1" d="M550.8,459.3l-277.1,160v144l277.1-160V459.3z"/>
	<path class="st1" d="M682.4,383.3v144"/>
	<path class="st1" d="M342.9,579.3v144"/>
	<path class="st1" d="M751.7,343.3v144"/>
	<path class="st1" d="M412.2,539.3v144"/>
	<path class="st1" d="M821,303.3v144"/>
	<path class="st1" d="M481.5,499.3v144"/>
	<path class="st1" d="M890.3,263.3v144"/>
	<path class="st1" d="M550.8,459.3v144"/>
</g>
<path class="st0" d="M582,421.3l-336,194"/>
<path class="st0" d="M582,421.3v180l336-194v-180"/>
<path class="st0" d="M918,227.3l-336,194"/>
<path class="st0" d="M422.6,329.3l-336,194"/>
<path class="st0" d="M86.6,523.3v180"/>
<path class="st0" d="M758.6,135.3l-336,194"/>
<path class="st0" d="M246,615.3l-159.3-92"/>
<path class="st0" d="M166.3,569.3v180"/>
<path class="st0" d="M246,795.3l-159.3-92"/>
<path class="st0" d="M918,227.3l-159.3-92"/>
<path class="st0" d="M422.6,329.3l159.3,92"/>
<path class="st0" d="M200.9,873.6c0-2.6-1.4-5-3.7-6.4c0,0,0,0,0,0c-1.4-0.8-3.1-0.8-4.5,0c-1.4,0.8-2.2,2.3-2.2,3.9v8.2l10.4,6
	V873.6L200.9,873.6z"/>
<path class="st0" d="M52,799.3l85.6-49.4"/>
<path class="st0" d="M52,787.9c0-2.8-1.5-5.5-4-6.9l0,0c-1.3-0.8-3-0.8-4.3,0c-1.3,0.8-2.1,2.2-2.1,3.7c0,4.2,0,8.6,0,8.6l10.4,6
	C52,799.3,52,787.9,52,787.9z"/>
<path class="st0" d="M101.3,747.8l-57.2,33"/>
<path class="st0" d="M755.2,589.3L755.2,589.3"/>
<path class="st0" d="M755.2,589.3l-20.8-12"/>
<path class="st0" d="M845.2,537.3l-20.8-12"/>
<path class="st0" d="M935.3,485.3l-20.8-12"/>
<path class="st0" d="M302.4,807.9c-4.4,13.6-14,26.9-25.3,33.4c-15.3,8.8-27.7,1.7-27.7-16c0-0.4,0-0.9,0-1.3"/>
<path class="st0" d="M135.1,749.5c-1.2,1.8-5.8,5.1-6.9,5.8c-15.3,8.8-27.7,1.7-27.7-16c0-0.4,0-10.4,0-10.9"/>
<path class="st0" d="M94.8,750c-3.9-4.1-5.2-10.9-5.2-17c0-0.4,0.1-10.4,0.1-10.9"/>
<path class="st0" d="M829.1,504c-4.4,13.5-14,26.7-25.2,33.1c-15.3,8.8-27.7,1.7-27.7-16"/>
<path class="st0" d="M415.4,729.5c0,17.7-12.4,39.2-27.7,48c-11.1,6.4-20.7,4.4-25.1-4"/>
<path class="st0" d="M942.2,424.1v1.2c0,17.7-12.4,39.2-27.7,48c-11.2,6.5-20.8,4.4-25.2-4.1"/>
<path class="st0" d="M250.5,834L193,867.2"/>
<path class="st0" d="M943.7,431.9c0,0,13.2-7.6,20.1-11.6c2.6-1.5,5.7-1.8,8.6-0.7l0,0c2.7,1,4.4,3.6,4.4,6.5v11.2l-776,448"/>
<path class="st0" d="M311.8,809.3l41.6-24"/>
<path class="st0" d="M353.3,785.3l20.8-32"/>
<path class="st0" d="M311.8,809.3l-20.8-8"/>
<path class="st0" d="M879.9,481.3l20.8-32"/>
<path class="st0" d="M838.3,505.3l-20.8-8"/>
<path class="st0" d="M838.3,505.3l41.6-24"/>
<g>
	<g>
		<g>
			<path class="st1" d="M197.5,749.3c6.7,3.9,14.1,8.1,20.8,12l6.9,4c1.9,1.1,3.6,2.1,4.8,2.8c0.4,0.3,1-0.1,1.4-0.8
				c0.4-0.8,0.7-1.9,0.7-2.9c0-4.3,0-10.4,0-14.6c0-2.8-0.7-5-2-5.7c-1.2-0.7-3-1.7-5-2.9l-6.9-4c-6.7-3.9-14.1-8.1-20.8-12l-6.9-4
				c-1.9-1.1-3.6-2.1-4.8-2.8c-0.4-0.3-1,0.1-1.4,0.8c-0.4,0.8-0.7,1.9-0.7,2.9c0,4.3,0,10.4,0,14.6c0,2.8,0.7,5,2,5.7
				c1.2,0.7,3,1.7,5,2.9L197.5,749.3z"/>
		</g>
		<g>
			<path class="st1" d="M197.5,692.6c6.7,3.9,14.1,8.1,20.8,12l6.9,4c1.9,1.1,3.6,2.1,4.8,2.8c0.4,0.3,1-0.1,1.4-0.8
				c0.4-0.8,0.7-1.9,0.7-2.9c0-4.3,0-10.4,0-14.6c0-2.8-0.7-5-2-5.7c-1.2-0.7-3-1.7-5-2.9l-6.9-4c-6.7-3.9-14.1-8.1-20.8-12l-6.9-4
				c-1.9-1.1-3.6-2.1-4.8-2.8c-0.4-0.3-1,0.1-1.4,0.8c-0.4,0.8-0.7,1.9-0.7,2.9c0,4.3,0,10.4,0,14.6c0,2.8,0.7,5,2,5.6
				c1.2,0.7,3,1.7,5,2.9L197.5,692.6z"/>
		</g>
		<g>
			<path class="st1" d="M197.5,633.3c6.7,3.9,14.1,8.1,20.8,12l6.9,4c1.9,1.1,3.6,2.1,4.8,2.8c0.4,0.3,1-0.1,1.4-0.8
				c0.4-0.8,0.7-1.9,0.7-2.9c0-4.3,0-10.4,0-14.6c0-2.8-0.7-4.9-2-5.7c-1.2-0.7-3-1.7-5-2.9l-6.9-4c-6.7-3.9-14.1-8.1-20.8-12
				l-6.9-4c-1.9-1.1-3.6-2.1-4.8-2.8c-0.4-0.3-1,0.1-1.4,0.8c-0.4,0.8-0.7,1.9-0.7,2.9c0,4.3,0,10.4,0,14.6c0,2.8,0.7,4.9,2,5.7
				c1.2,0.7,3,1.7,5,2.9L197.5,633.3z"/>
		</g>
		<path class="st0" d="M194,755.3v-156"/>
		<path class="st0" d="M221.7,771.3v-156"/>
	</g>
	<g>
		<g>
			<path class="st1" d="M135.1,689.3c-6.7-3.9-14.1-8.1-20.8-12l-6.9-4c-1.9-1.1-3.6-2.1-4.8-2.8c-0.4-0.3-1,0.1-1.4,0.8
				c-0.4,0.8-0.7,1.9-0.7,2.9c0,4.3,0,10.4,0,14.6c0,2.8,0.7,5,2,5.7c1.2,0.7,3,1.7,5,2.9l6.9,4c6.7,3.9,14.1,8.1,20.8,12l6.9,4
				c1.9,1.1,3.6,2.1,4.8,2.8c0.4,0.3,1-0.1,1.4-0.8c0.4-0.8,0.7-1.9,0.7-2.9c0-4.3,0-10.4,0-14.6c0-2.8-0.7-5-2-5.7
				c-1.2-0.7-3-1.7-5-2.9L135.1,689.3z"/>
		</g>
		<g>
			<path class="st1" d="M114.3,644.6c6.7,3.9,14.1,8.1,20.8,12l6.9,4c1.9,1.1,3.6,2.1,4.8,2.8c0.4,0.3,1-0.1,1.4-0.8
				c0.4-0.8,0.7-1.9,0.7-2.9c0-4.3,0-10.4,0-14.6c0-2.8-0.7-5-2-5.7c-1.2-0.7-3-1.7-5-2.9l-6.9-4c-6.7-3.9-14.1-8.1-20.8-12l-6.9-4
				c-1.9-1.1-3.6-2.1-4.8-2.8c-0.4-0.3-1,0.1-1.4,0.8c-0.4,0.8-0.7,1.9-0.7,2.9c0,4.3,0,10.4,0,14.6c0,2.8,0.7,5,2,5.6
				c1.2,0.7,3,1.7,5,2.9L114.3,644.6z"/>
		</g>
		<g>
			<path class="st1" d="M107.4,557.3c-1.9-1.1-3.6-2.1-4.8-2.8c-0.4-0.3-1,0.1-1.4,0.8c-0.4,0.8-0.7,1.9-0.7,2.9
				c0,4.3,0,10.4,0,14.6c0,2.8,0.7,5,2,5.7c1.2,0.7,3,1.7,5,2.9l6.9,4c6.7,3.9,14.1,8.1,20.8,12l6.9,4c1.9,1.1,3.6,2.1,4.8,2.8
				c0.4,0.3,1-0.1,1.4-0.8c0.4-0.8,0.7-1.9,0.7-2.9c0-4.3,0-10.4,0-14.6c0-2.8-0.7-5-2-5.7c-1.2-0.7-3-1.7-5-2.9l-6.9-4
				c-6.7-3.9-14.1-8.1-20.8-12L107.4,557.3z"/>
		</g>
		<path class="st0" d="M110.8,707.3v-156"/>
		<path class="st0" d="M138.6,723.3v-156"/>
	</g>
</g>
<path class="st0" d="M485,745.3l-20.8-12"/>
<path class="st0" d="M55.4,737.3l-27.7-16"/>
</svg>
